<?xml version="1.0" standalone="no"?>
<!DOCTYPE svg PUBLIC "-//W3C//DTD SVG 20010904//EN"
 "http://www.w3.org/TR/2001/REC-SVG-20010904/DTD/svg10.dtd">
<svg version="1.0" xmlns="http://www.w3.org/2000/svg"
 width="512.000000pt" height="512.000000pt" viewBox="0 0 512.000000 512.000000"
 preserveAspectRatio="xMidYMid meet">
<metadata>
Created by potrace 1.11, written by Peter Selinger 2001-2013
</metadata>
<g transform="translate(0.000000,512.000000) scale(0.100000,-0.100000)"
fill="#000000" stroke="none">
<path d="M4555 4598 c-82 -60 -172 -124 -200 -143 -130 -89 -300 -216 -300
-223 0 -11 59 -101 67 -102 7 0 79 33 641 298 42 20 77 39 77 43 0 4 -30 58
-67 121 l-68 114 -150 -108z"/>
<path d="M375 4643 c-15 -32 -45 -86 -65 -119 l-37 -62 86 -40 c193 -91 303
-142 307 -142 1 0 49 -22 106 -48 160 -76 228 -105 232 -101 12 15 66 98 66
102 0 2 -48 39 -107 81 -60 42 -155 109 -213 150 -58 41 -109 78 -115 83 -29
25 -215 153 -222 153 -5 0 -22 -26 -38 -57z"/>
<path d="M2487 4693 c-1 -1 -31 -4 -67 -6 -36 -3 -110 -15 -164 -26 -526 -110
-949 -489 -1115 -999 -16 -49 -32 -102 -35 -118 -2 -16 -7 -39 -10 -50 -17
-76 -20 -118 -20 -279 -1 -203 4 -252 40 -386 60 -224 146 -381 463 -847 124
-183 199 -315 250 -445 47 -118 77 -250 86 -380 3 -45 8 -83 10 -85 3 -4 125
16 200 31 23 5 73 14 125 22 48 8 140 24 170 30 14 3 41 8 60 11 19 3 82 14
140 24 58 11 121 22 140 25 19 3 42 8 50 10 8 2 33 6 55 9 22 4 54 9 70 13 17
3 37 7 45 8 8 1 61 10 118 20 78 14 102 22 103 34 6 177 66 351 183 529 25 38
114 156 197 263 83 107 177 234 210 283 147 223 232 445 254 671 7 77 8 252 1
303 -14 97 -19 122 -32 181 -143 618 -678 1087 -1307 1147 -57 5 -217 11 -220
7z"/>
<path d="M0 3308 l0 -140 83 6 c46 4 98 8 117 10 19 3 69 7 110 11 41 3 98 8
125 11 28 2 70 6 95 8 144 12 206 19 213 23 4 2 7 33 7 69 0 63 0 64 -27 65
-16 0 -35 2 -43 3 -8 2 -46 6 -85 10 -90 9 -140 14 -190 20 -22 3 -71 8 -110
11 -38 4 -81 8 -95 10 -14 2 -56 7 -95 11 -38 3 -78 8 -87 10 -16 3 -18 -9
-18 -138z"/>
<path d="M5045 3439 c-22 -4 -76 -10 -120 -14 -44 -3 -91 -8 -105 -10 -14 -2
-54 -6 -90 -9 -36 -3 -74 -8 -85 -10 -11 -2 -57 -7 -103 -11 -46 -4 -91 -8
-100 -10 -9 -2 -29 -4 -44 -4 -28 -1 -28 -2 -28 -70 l0 -68 83 -7 c166 -14
203 -17 237 -21 19 -2 69 -7 110 -10 41 -3 93 -8 115 -10 22 -3 77 -7 123 -11
l82 -7 0 140 c0 155 5 145 -75 132z"/>
<path d="M725 2354 c-104 -46 -208 -92 -230 -102 -22 -10 -79 -36 -127 -57
-49 -22 -88 -43 -88 -47 0 -10 130 -238 136 -238 11 0 564 393 564 401 0 10
-58 129 -63 128 -1 0 -87 -38 -192 -85z"/>
<path d="M4161 2379 c-17 -33 -31 -61 -31 -64 0 -3 385 -280 546 -393 l32 -22
66 121 c36 66 66 124 66 128 0 4 -75 41 -167 81 -287 126 -437 191 -459 200
-19 8 -25 2 -53 -51z"/>
<path d="M2975 1154 c-66 -13 -129 -26 -140 -28 -11 -2 -121 -25 -245 -50
-124 -25 -236 -47 -250 -50 -149 -26 -341 -69 -366 -82 -89 -45 -62 -182 37
-197 13 -2 51 2 86 10 35 7 78 15 96 18 18 3 39 8 47 10 8 2 29 7 45 9 17 3
73 14 125 25 52 11 106 22 120 24 14 3 70 14 125 26 55 11 111 22 125 25 135
23 341 69 366 82 66 34 73 136 12 176 -40 27 -60 27 -183 2z"/>
<path d="M3020 844 c-30 -7 -69 -16 -86 -18 -17 -3 -37 -8 -45 -10 -8 -3 -30
-7 -49 -10 -19 -3 -91 -17 -160 -31 -69 -14 -135 -27 -148 -30 -12 -2 -30 -6
-40 -9 -9 -3 -33 -7 -52 -10 -83 -13 -437 -87 -461 -96 -64 -27 -78 -133 -23
-177 16 -12 40 -23 54 -25 28 -3 1090 205 1131 222 52 22 73 93 44 150 -26 50
-79 64 -165 44z"/>
<path d="M2809 416 c-2 -2 -26 -7 -54 -10 -27 -4 -57 -9 -65 -11 -8 -2 -33 -6
-55 -10 -52 -7 -94 -14 -125 -20 -14 -3 -41 -7 -60 -10 -62 -10 -154 -25 -183
-31 -27 -6 -28 -8 -22 -51 25 -188 223 -313 409 -259 127 37 204 155 222 339
l6 67 -34 0 c-19 0 -37 -2 -39 -4z"/>
</g>
</svg>
